<?xml version="1.0" encoding="iso-8859-1"?>
<!-- Uploaded to: SVG Repo, www.svgrepo.com, Generator: SVG Repo Mixer Tools -->
<svg fill="#000000" height="800px" width="800px" version="1.1" id="Layer_1" xmlns="http://www.w3.org/2000/svg" xmlns:xlink="http://www.w3.org/1999/xlink" 
	 viewBox="0 0 512 512" xml:space="preserve">
<g>
	<g>
		<g>
			<path d="M475.429,0H36.571c-5.77,0-10.449,4.679-10.449,10.449v491.102c0,5.77,4.679,10.449,10.449,10.449h438.857
				c5.77,0,10.449-4.679,10.449-10.449V10.449C485.878,4.679,481.198,0,475.429,0z M464.98,491.102H47.02V20.898H464.98V491.102z"/>
			<path d="M78.367,470.204h355.265c5.77,0,10.449-4.679,10.449-10.449V52.245c0-5.77-4.679-10.449-10.449-10.449H78.367
				c-5.77,0-10.449,4.679-10.449,10.449v407.51C67.918,465.525,72.597,470.204,78.367,470.204z M88.816,62.694h334.367v386.612
				H88.816V62.694z"/>
			<path d="M357.408,83.592h-45.396c-5.77,0-10.449,4.679-10.449,10.449v24.327H171.503c-4.365-14.105-17.528-24.382-33.049-24.382
				h-18.291c-5.77,0-10.449,4.679-10.449,10.449v48.762c0,5.77,4.679,10.449,10.449,10.449h18.291
				c15.521,0,28.685-10.276,33.049-24.381h130.061v24.326c0,5.77,4.679,10.449,10.449,10.449h45.396
				c24.746,0,44.877-20.132,44.877-44.877v-0.695C402.286,103.724,382.154,83.592,357.408,83.592z M152.143,129.062h-0.001
				c0,7.548-6.141,13.688-13.689,13.688h-7.841v-27.864h7.842c7.548,0,13.689,6.141,13.689,13.689V129.062z M381.388,129.164
				c0,13.222-10.757,23.979-23.979,23.979h-34.947v-13.877h19.156c5.77,0,10.449-4.679,10.449-10.449
				c0-5.77-4.679-10.449-10.449-10.449h-19.156V104.49h34.947c13.222,0,23.979,10.757,23.979,23.979V129.164z"/>
			<path d="M364.779,208.175c0-5.77-4.679-10.449-10.449-10.449H120.163c-5.77,0-10.449,4.679-10.449,10.449
				c0,5.77,4.679,10.449,10.449,10.449h184.719c7.292,0,13.224,5.933,13.224,13.224v0.478c0,7.292-5.933,13.224-13.224,13.224
				h-18.645c-5.77,0-10.449,4.679-10.449,10.449c0,5.77,4.679,10.449,10.449,10.449h18.645c18.815,0,34.122-15.307,34.122-34.122
				v-0.477c0-4.686-0.951-9.155-2.668-13.224h17.993C360.101,218.624,364.779,213.946,364.779,208.175z"/>
			<path d="M391.837,197.726h-0.413c-5.77,0-10.449,4.679-10.449,10.449c0,5.77,4.679,10.449,10.449,10.449h0.413
				c5.77,0,10.449-4.679,10.449-10.449C402.286,202.405,397.607,197.726,391.837,197.726z"/>
			<path d="M323.778,271.391h-0.909c-30.57,0-55.44,24.871-55.44,55.44v0.984c0,0.104,0.013,0.206,0.016,0.31
				c0.003,0.095-0.004,0.189,0.002,0.284l5.145,90.144c0.316,5.53,4.892,9.853,10.431,9.853h80.601
				c5.54,0,10.117-4.324,10.431-9.853l5.145-90.143c0.005-0.095-0.001-0.19,0.001-0.285c0.003-0.104,0.016-0.206,0.016-0.31v-0.984
				C379.219,296.262,354.348,271.391,323.778,271.391z M322.869,292.289h0.909c15.766,0,29.099,10.617,33.224,25.078h-67.356
				C293.77,302.908,307.103,292.289,322.869,292.289z M353.755,407.51h-60.862l-3.952-69.245h68.767L353.755,407.51z"/>
			<path d="M224.87,329.143h-71.683c-3.557,0-6.869,1.809-8.792,4.802s-2.19,6.758-0.711,9.992l35.841,78.367
				c1.7,3.719,5.414,6.103,9.502,6.103s7.802-2.384,9.502-6.103l35.842-78.367c1.48-3.235,1.212-7-0.711-9.992
				C231.74,330.953,228.427,329.143,224.87,329.143z M189.028,392.837l-19.572-42.796h39.146L189.028,392.837z"/>
			<path d="M244.441,236.387H120.163c-5.77,0-10.449,4.679-10.449,10.449v52.245c0,5.77,4.679,10.449,10.449,10.449h124.278
				c5.77,0,10.449-4.679,10.449-10.449v-52.245C254.89,241.066,250.212,236.387,244.441,236.387z M233.992,288.632h-103.38v-31.347
				h103.38V288.632z"/>
		</g>
	</g>
</g>
</svg>