<?xml version="1.0" encoding="iso-8859-1"?>
<!-- Uploaded to: SVG Repo, www.svgrepo.com, Generator: SVG Repo Mixer Tools -->
<svg height="800px" width="800px" version="1.1" id="Layer_1" xmlns="http://www.w3.org/2000/svg" xmlns:xlink="http://www.w3.org/1999/xlink" 
	 viewBox="0 0 499.192 499.192" xml:space="preserve">
<path style="fill:#91ADB5;" d="M257.938,81.164V11.823c0-4.608-3.742-8.35-8.342-8.35c-4.6,0-8.342,3.742-8.342,8.35v77.17
	c0,4.6,3.742,8.342,8.342,8.342c0.52,0,1.048-0.055,1.536-0.158c17.881,0.819,32.185,15.573,32.185,33.642
	c0,18.582-15.124,33.713-33.721,33.713c-18.582,0-33.721-15.132-33.721-33.713h-16.691c0,27.79,22.63,50.404,50.412,50.404
	c27.798,0,50.412-22.615,50.412-50.404C300.008,105.874,281.765,85.165,257.938,81.164z"/>
<g>
	<path style="fill:#A8C6CC;" d="M249.596,80.187c0.52,0,1.048-0.063,1.536-0.158c2.355,0.11,4.616,0.465,6.798,1.024V64.016V11.823
		c0-4.608-3.742-8.35-8.342-8.35c-4.6,0-8.342,3.742-8.342,8.35v60.022C241.254,76.453,244.996,80.187,249.596,80.187z"/>
	<path style="fill:#A8C6CC;" d="M299.229,122.132c-3.568-20.488-19.598-36.691-39.952-40.676
		c13.879,4.167,24.048,16.998,24.048,32.224c0,2.962-0.433,5.821-1.15,8.562c0.725,2.749,1.15,5.616,1.15,8.586
		c0,15.273-10.232,28.199-24.198,32.327C279.623,159.201,295.715,142.801,299.229,122.132z"/>
	<path style="fill:#A8C6CC;" d="M215.875,130.82h-13.619c5.986,16.463,20.259,28.956,37.817,32.327
		C226.107,159.019,215.875,146.101,215.875,130.82z"/>
</g>
<path style="fill:#608387;" d="M281.23,24.332c0,3.08-2.489,5.569-5.553,5.569h-52.153c-3.08,0-5.553-2.489-5.553-5.569V5.561
	c0-3.08,2.473-5.561,5.553-5.561h52.153c3.064,0,5.553,2.481,5.553,5.561V24.332z"/>
<path id="SVGCleanerId_0" style="fill:#91ADB5;" d="M92.719,336.4c-3.033,0-6.049-1.15-8.357-3.458
	c-4.616-4.616-4.616-12.091,0-16.707l156.877-156.877c4.616-4.616,12.091-4.616,16.707,0l156.877,156.877
	c4.616,4.616,4.616,12.091,0,16.707c-4.616,4.616-12.091,4.616-16.707,0L249.596,184.415L101.077,332.942
	C98.769,335.25,95.736,336.4,92.719,336.4z"/>
<path style="fill:#049696;" d="M485.691,483.801c0,8.499-6.877,15.392-15.384,15.392H28.9c-8.507,0-15.399-6.892-15.399-15.392
	V315.691c0-8.499,6.892-15.392,15.399-15.392h441.407c8.507,0,15.384,6.892,15.384,15.392V483.801z"/>
<g>
	<path id="SVGCleanerId_0_1_" style="fill:#91ADB5;" d="M92.719,336.4c-3.033,0-6.049-1.15-8.357-3.458
		c-4.616-4.616-4.616-12.091,0-16.707l156.877-156.877c4.616-4.616,12.091-4.616,16.707,0l156.877,156.877
		c4.616,4.616,4.616,12.091,0,16.707c-4.616,4.616-12.091,4.616-16.707,0L249.596,184.415L101.077,332.942
		C98.769,335.25,95.736,336.4,92.719,336.4z"/>
</g>
<path style="fill:#A8C6CC;" d="M100.777,332.635l156.877-156.877c4.616-4.608,12.06-4.608,16.675-0.016l-16.384-16.392
	c-4.616-4.616-12.091-4.616-16.707,0L84.362,316.227c-4.616,4.616-4.616,12.091,0,16.707c2.308,2.308,5.325,3.458,8.357,3.458
	c2.678,0,5.293-1.063,7.475-2.875C100.423,333.249,100.517,332.902,100.777,332.635z"/>
<path style="fill:#02D1B8;" d="M485.691,483.801V315.691c0-8.499-6.877-15.392-15.384-15.392H324.285
	c-8.507,0-15.399,6.892-15.399,15.392v168.109c0,8.499,6.892,15.392,15.399,15.392h146.022
	C478.815,499.192,485.691,492.3,485.691,483.801z"/>
<g>
	<path style="fill:#00B7A5;" d="M324.285,300.3c-8.507,0-15.399,6.892-15.399,15.392v168.109c0,8.499,6.892,15.392,15.399,15.392
		h146.022c8.507,0,15.384-6.892,15.384-15.392"/>
	<path style="fill:#00B7A5;" d="M51.239,458.823c0,2.174-1.772,3.938-3.938,3.938l0,0c-2.182,0-3.938-1.764-3.938-3.938V340.669
		c0-2.174,1.757-3.938,3.938-3.938l0,0c2.166,0,3.938,1.764,3.938,3.938V458.823z"/>
	<path style="fill:#00B7A5;" d="M80.132,458.823c0,2.174-1.772,3.938-3.938,3.938l0,0c-2.182,0-3.938-1.764-3.938-3.938V340.669
		c0-2.174,1.757-3.938,3.938-3.938l0,0c2.166,0,3.938,1.764,3.938,3.938V458.823z"/>
	<path style="fill:#00B7A5;" d="M109.009,458.823c0,2.174-1.772,3.938-3.938,3.938l0,0c-2.182,0-3.938-1.764-3.938-3.938V340.669
		c0-2.174,1.757-3.938,3.938-3.938l0,0c2.166,0,3.938,1.764,3.938,3.938V458.823z"/>
	<path style="fill:#00B7A5;" d="M137.901,458.823c0,2.174-1.772,3.938-3.938,3.938l0,0c-2.182,0-3.938-1.764-3.938-3.938V340.669
		c0-2.174,1.757-3.938,3.938-3.938l0,0c2.166,0,3.938,1.764,3.938,3.938V458.823z"/>
	<path style="fill:#00B7A5;" d="M166.778,458.823c0,2.174-1.772,3.938-3.938,3.938l0,0c-2.182,0-3.938-1.764-3.938-3.938V340.669
		c0-2.174,1.757-3.938,3.938-3.938l0,0c2.166,0,3.938,1.764,3.938,3.938V458.823z"/>
	<path style="fill:#00B7A5;" d="M195.655,458.823c0,2.174-1.757,3.938-3.938,3.938l0,0c-2.166,0-3.938-1.764-3.938-3.938V340.669
		c0-2.174,1.772-3.938,3.938-3.938l0,0c2.182,0,3.938,1.764,3.938,3.938V458.823z"/>
	<path style="fill:#00B7A5;" d="M224.547,458.823c0,2.174-1.772,3.938-3.938,3.938l0,0c-2.182,0-3.938-1.764-3.938-3.938V340.669
		c0-2.174,1.757-3.938,3.938-3.938l0,0c2.166,0,3.938,1.764,3.938,3.938V458.823z"/>
	<path style="fill:#00B7A5;" d="M253.424,458.823c0,2.174-1.757,3.938-3.938,3.938l0,0c-2.166,0-3.938-1.764-3.938-3.938V340.669
		c0-2.174,1.772-3.938,3.938-3.938l0,0c2.182,0,3.938,1.764,3.938,3.938V458.823z"/>
	<path style="fill:#00B7A5;" d="M282.317,458.823c0,2.174-1.772,3.938-3.938,3.938l0,0c-2.182,0-3.938-1.764-3.938-3.938V340.669
		c0-2.174,1.757-3.938,3.938-3.938l0,0c2.166,0,3.938,1.764,3.938,3.938V458.823z"/>
</g>
</svg>