<?xml version="1.0" encoding="iso-8859-1"?>
<!-- Uploaded to: SVG Repo, www.svgrepo.com, Generator: SVG Repo Mixer Tools -->
<svg height="800px" width="800px" version="1.1" id="Layer_1" xmlns="http://www.w3.org/2000/svg" xmlns:xlink="http://www.w3.org/1999/xlink" 
	 viewBox="0 0 512.217 512.217" xml:space="preserve">
<g transform="translate(1 1)">
	<g>
		<polygon style="fill:#FFE100;" points="16.284,468.335 494.151,468.335 494.151,434.202 16.284,434.202 		"/>
		<polygon style="fill:#FFE100;" points="255.217,41.669 7.751,161.135 494.151,161.135 		"/>
	</g>
	<g>
		<polygon style="fill:#FFA800;" points="41.884,434.202 468.551,434.202 468.551,400.069 41.884,400.069 		"/>
		<polygon style="fill:#FFA800;" points="41.884,195.269 468.551,195.269 468.551,161.135 41.884,161.135 		"/>
	</g>
	<g>
		<polygon style="fill:#FFE100;" points="238.151,400.069 272.284,400.069 272.284,195.269 238.151,195.269 		"/>
		<polygon style="fill:#FFE100;" points="323.484,400.069 357.617,400.069 357.617,195.269 323.484,195.269 		"/>
		<polygon style="fill:#FFE100;" points="408.817,400.069 442.951,400.069 442.951,195.269 408.817,195.269 		"/>
		<polygon style="fill:#FFE100;" points="152.817,400.069 186.951,400.069 186.951,195.269 152.817,195.269 		"/>
		<polygon style="fill:#FFE100;" points="67.484,400.069 101.617,400.069 101.617,195.269 67.484,195.269 		"/>
	</g>
	<g>
		<path style="fill:#0C0C0C;" d="M502.684,476.869H7.751c-5.12,0-8.533-3.413-8.533-8.533s3.413-8.533,8.533-8.533h494.933
			c5.12,0,8.533,3.413,8.533,8.533S507.804,476.869,502.684,476.869z"/>
		<path style="fill:#0C0C0C;" d="M494.151,476.869H16.284c-5.12,0-8.533-3.413-8.533-8.533v-34.133c0-5.12,3.413-8.533,8.533-8.533
			h477.867c5.12,0,8.533,3.413,8.533,8.533v34.133C502.684,473.455,499.271,476.869,494.151,476.869z M24.817,459.802h460.8v-17.067
			h-460.8V459.802z"/>
		<path style="fill:#0C0C0C;" d="M468.551,442.735H41.884c-5.12,0-8.533-3.413-8.533-8.533v-34.133c0-5.12,3.413-8.533,8.533-8.533
			h426.667c5.12,0,8.533,3.413,8.533,8.533v34.133C477.084,439.322,473.671,442.735,468.551,442.735z M50.417,425.669h409.6v-17.067
			h-409.6V425.669z"/>
		<path style="fill:#0C0C0C;" d="M272.284,408.602h-34.133c-5.12,0-8.533-3.413-8.533-8.533v-204.8c0-5.12,3.413-8.533,8.533-8.533
			h34.133c5.12,0,8.533,3.413,8.533,8.533v204.8C280.817,405.189,277.404,408.602,272.284,408.602z M246.684,391.535h17.067V203.802
			h-17.067V391.535z"/>
		<path style="fill:#0C0C0C;" d="M357.617,408.602h-34.133c-5.12,0-8.533-3.413-8.533-8.533v-204.8c0-5.12,3.413-8.533,8.533-8.533
			h34.133c5.12,0,8.533,3.413,8.533,8.533v204.8C366.151,405.189,362.737,408.602,357.617,408.602z M332.017,391.535h17.067V203.802
			h-17.067V391.535z"/>
		<path style="fill:#0C0C0C;" d="M442.951,408.602h-34.133c-5.12,0-8.533-3.413-8.533-8.533v-204.8c0-5.12,3.413-8.533,8.533-8.533
			h34.133c5.12,0,8.533,3.413,8.533,8.533v204.8C451.484,405.189,448.071,408.602,442.951,408.602z M417.351,391.535h17.067V203.802
			h-17.067V391.535z"/>
		<path style="fill:#0C0C0C;" d="M186.951,408.602h-34.133c-5.12,0-8.533-3.413-8.533-8.533v-204.8c0-5.12,3.413-8.533,8.533-8.533
			h34.133c5.12,0,8.533,3.413,8.533,8.533v204.8C195.484,405.189,192.071,408.602,186.951,408.602z M161.351,391.535h17.067V203.802
			h-17.067V391.535z"/>
		<path style="fill:#0C0C0C;" d="M101.617,408.602H67.484c-5.12,0-8.533-3.413-8.533-8.533v-204.8c0-5.12,3.413-8.533,8.533-8.533
			h34.133c5.12,0,8.533,3.413,8.533,8.533v204.8C110.151,405.189,106.737,408.602,101.617,408.602z M76.017,391.535h17.067V203.802
			H76.017V391.535z"/>
		<path style="fill:#0C0C0C;" d="M468.551,203.802H41.884c-5.12,0-8.533-3.413-8.533-8.533v-34.133c0-5.12,3.413-8.533,8.533-8.533
			h426.667c5.12,0,8.533,3.413,8.533,8.533v34.133C477.084,200.389,473.671,203.802,468.551,203.802z M50.417,186.735h409.6v-17.067
			h-409.6V186.735z"/>
		<path style="fill:#0C0C0C;" d="M494.151,169.669H7.751c-4.267,0-7.68-2.56-8.533-6.827s0.853-7.68,4.267-9.387L250.951,33.989
			c2.56-0.853,5.12-0.853,7.68,0l238.933,119.467c3.413,1.707,5.12,5.973,4.267,9.387
			C501.831,167.109,498.417,169.669,494.151,169.669z M45.297,152.602h413.013L255.217,51.055L45.297,152.602z"/>
	</g>
</g>
</svg>